<svg width="24" height="24" viewBox="0 0 24 24" fill="none" xmlns="http://www.w3.org/2000/svg">
<path d="M6.5 11.5C8.43305 11.5 10 13.06695 10 15C10 16.93305 8.43305 18.5 6.5 18.5C4.56695 18.5 3 16.93305 3 15C3 13.06695 4.56695 11.5 6.5 11.5Z" stroke="currentColor" stroke-width="2" stroke-linecap="round" stroke-linejoin="round"/>
<path d="M17.5 11.5C19.43305 11.5 21 13.06695 21 15C21 16.93305 19.43305 18.5 17.5 18.5C15.56695 18.5 14 16.93305 14 15C14 13.06695 15.56695 11.5 17.5 11.5Z" stroke="currentColor" stroke-width="2" stroke-linecap="round" stroke-linejoin="round"/>
<path d="M13.25 5.5L13.458223 5.5C14.366763 5.5 15.161155 6.112387 15.392372 6.991013L17.5 15" stroke="currentColor" stroke-width="2" stroke-linecap="round" stroke-linejoin="round"/>
<path d="M8 7.25L10.5 7.25" stroke="currentColor" stroke-width="2" stroke-linecap="round" stroke-linejoin="round"/>
<path d="M9 7.25L11.5 12.5" stroke="currentColor" stroke-width="2" stroke-linecap="round" stroke-linejoin="round"/>
<path d="M6.5 15L16 10" stroke="currentColor" stroke-width="2" stroke-linecap="round" stroke-linejoin="round"/>
</svg>