<svg xmlns="http://www.w3.org/2000/svg" width="24" height="24" fill="none" viewBox="0 0 24 24"><path stroke="currentColor" stroke-linecap="round" stroke-linejoin="round" stroke-width="2" d="m5.7975 5.2136 5-2.1875c.7666-.3354 1.6384-.3354 2.405 0l5 2.1875C19.2944 5.6913 20 6.77 20 7.962V13c0 4.4183-3.5817 8-8 8s-8-3.5817-8-8V7.962c0-1.1919.7056-2.2707 1.7975-2.7484Z"/><circle cx="11.9992" cy="15.6999" r="1.3" fill="currentColor"/><path fill="currentColor" d="M11.1 12.3c.0149.2235.1228.4379.2913.5959.1691.158.3849.2468.6087.2468s.4396-.0888.6087-.2468c.1685-.158.2764-.3724.2913-.5959.0042-.0633.0083-.1267.0125-.19.075-1.14.15-2.28.225-3.42.0042-.0633.0083-.1267.0125-.19.0203-.305-.083-.5975-.299-.8132-.2153-.2156-.5257-.3368-.851-.3368s-.6357.1212-.851.3368c-.216.2157-.3193.5082-.299.8132.0042.0633.0083.1267.0125.19.075 1.14.15 2.28.225 3.42.0042.0633.0083.1267.0125.19Z"/></svg>
